<?xml version="1.0" encoding="UTF-8" standalone="no"?>
<!-- Created with Inkscape (http://www.inkscape.org/) -->

<svg
   xmlns:dc="http://purl.org/dc/elements/1.1/"
   xmlns:cc="http://creativecommons.org/ns#"
   xmlns:rdf="http://www.w3.org/1999/02/22-rdf-syntax-ns#"
   xmlns:svg="http://www.w3.org/2000/svg"
   xmlns="http://www.w3.org/2000/svg"
   xmlns:sodipodi="http://sodipodi.sourceforge.net/DTD/sodipodi-0.dtd"
   xmlns:inkscape="http://www.inkscape.org/namespaces/inkscape"
   width="60"
   height="60"
   viewBox="0 0 15.874999 15.875"
   version="1.1"
   id="svg8"
   inkscape:version="0.92.2 (5c3e80d, 2017-08-06)"
   sodipodi:docname="BulletHole.svg">
  <defs
     id="defs2" />
  <sodipodi:namedview
     id="base"
     pagecolor="#ffffff"
     bordercolor="#666666"
     borderopacity="1.0"
     inkscape:pageopacity="0.0"
     inkscape:pageshadow="2"
     inkscape:zoom="8.95"
     inkscape:cx="11.732282"
     inkscape:cy="30"
     inkscape:document-units="px"
     inkscape:current-layer="layer1"
     showgrid="false"
     units="px"
     inkscape:window-width="1366"
     inkscape:window-height="706"
     inkscape:window-x="-8"
     inkscape:window-y="-8"
     inkscape:window-maximized="1" />
  <metadata
     id="metadata5">
    <rdf:RDF>
      <cc:Work
         rdf:about="">
        <dc:format>image/svg+xml</dc:format>
        <dc:type
           rdf:resource="http://purl.org/dc/dcmitype/StillImage" />
        <dc:title />
      </cc:Work>
    </rdf:RDF>
  </metadata>
  <g
     inkscape:label="Capa 1"
     inkscape:groupmode="layer"
     id="layer1"
     transform="translate(0,-281.12498)">
    <path
       style="fill:#000000;fill-opacity:1;stroke-width:0.28194901"
       d="m 15.874999,288.92624 c 0,0 -2.069039,0.17134 -2.771915,0.51479 -1.000244,0.48876 1.664453,4.11375 1.664453,4.11375 0,0 -1.756891,-0.50914 -2.207047,-0.29258 -0.609285,0.29309 -0.222368,2.99481 -0.222368,2.99481 0,0 -2.8403354,-1.51243 -4.1990158,-1.51243 -1.1105426,0 -4.170447,2.2554 -4.170447,2.2554 0,0 0.3023764,-3.16025 -0.3893909,-3.89444 -0.594675,-0.63115 -2.85049349,-1.98302 -2.85049349,-1.98302 0,0 1.84174819,-1.14345 1.83538629,-2.16335 C 2.5594301,288.20024 0,285.45829 0,285.45829 c 0,0 2.886647,0.20681 2.9394879,-0.38308 0.1625029,-1.81409 -1.0598592,-2.68675 -1.0598592,-2.68675 0,0 3.6320983,3.10093 6.1994511,0.1269 l 1.2002627,-1.39038 1.1842375,2.68688 c 0.276548,0.62745 3.607466,-0.21573 3.607466,-0.21573 0,0 -1.068587,2.65795 -0.706067,3.43408 0.656683,1.4059 2.51002,1.89603 2.51002,1.89603 z"
       id="path819-3"
       inkscape:connector-curvature="0"
       sodipodi:nodetypes="cscscscscscscscscsc" />
  </g>
</svg>
