<?xml version="1.0" encoding="UTF-8" standalone="no"?>
<!-- Created with Inkscape (http://www.inkscape.org/) -->

<svg
   xmlns:dc="http://purl.org/dc/elements/1.1/"
   xmlns:cc="http://creativecommons.org/ns#"
   xmlns:rdf="http://www.w3.org/1999/02/22-rdf-syntax-ns#"
   xmlns:svg="http://www.w3.org/2000/svg"
   xmlns="http://www.w3.org/2000/svg"
   xmlns:sodipodi="http://sodipodi.sourceforge.net/DTD/sodipodi-0.dtd"
   xmlns:inkscape="http://www.inkscape.org/namespaces/inkscape"
   width="165"
   height="300"
   viewBox="0 0 43.65625 79.375"
   version="1.1"
   id="svg8"
   inkscape:version="0.92.2 (5c3e80d, 2017-08-06)"
   sodipodi:docname="Stickman.svg">
  <defs
     id="defs2" />
  <sodipodi:namedview
     id="base"
     pagecolor="#ffffff"
     bordercolor="#666666"
     borderopacity="1.0"
     inkscape:pageopacity="0.0"
     inkscape:pageshadow="2"
     inkscape:zoom="2.3257184"
     inkscape:cx="9.7263412"
     inkscape:cy="125.42035"
     inkscape:document-units="mm"
     inkscape:current-layer="layer1"
     showgrid="false"
     units="px"
     inkscape:window-width="1366"
     inkscape:window-height="706"
     inkscape:window-x="-8"
     inkscape:window-y="-8"
     inkscape:window-maximized="1" />
  <metadata
     id="metadata5">
    <rdf:RDF>
      <cc:Work
         rdf:about="">
        <dc:format>image/svg+xml</dc:format>
        <dc:type
           rdf:resource="http://purl.org/dc/dcmitype/StillImage" />
        <dc:title />
      </cc:Work>
    </rdf:RDF>
  </metadata>
  <g
     inkscape:label="Capa 1"
     inkscape:groupmode="layer"
     id="layer1"
     transform="translate(0,-217.62497)">
    <path
       style="fill:#d29646;fill-opacity:1;stroke:#000000;stroke-width:0.2;stroke-opacity:1;stroke-miterlimit:4;stroke-dasharray:none"
       d="m 22.069865,233.26374 0.109245,60.16287 -5.638939,-0.0312 0.08375,-17.76114 -10.8783348,0.0729 0.047686,17.61791 L 0.1,293.28818 0.181145,233.48371 10.919568,222.58599 Z"
       id="path815-3"
       inkscape:connector-curvature="0"
       sodipodi:nodetypes="cccccccccc" />
    <path
       style="fill:#318c53;fill-opacity:1;stroke:#000000;stroke-width:0.2;stroke-opacity:1;stroke-miterlimit:4;stroke-dasharray:none"
       d="m 22.111611,226.64916 c 0.04725,3.97667 -0.05168,6.75382 -0.05168,6.75382 -4.355467,-2.53413 -6.524538,-3.03822 -10.956881,-3.16305 -4.6195775,0.0816 -6.5979523,0.50738 -11.021905,3.2437 0,0 -0.081144,-5.61864 -0.081145,-6.83447 1e-6,-4.95783 4.949853,-8.97694 11.055807,-8.97694 6.105954,0 10.996905,4.01946 11.055804,8.97694 z"
       id="path815"
       inkscape:connector-curvature="0"
       sodipodi:nodetypes="scccsss" />
    <path
       style="fill:#000000;fill-opacity:1;stroke-width:0.23209143"
       d="m 16.52063,285.38212 h 5.983377 v 6.04086 c 0,0 -0.03513,0.74814 0.147747,0.94259 0.182872,0.19445 0.923791,0.19637 0.923791,0.19637 h 1.442485 c 0,0 0.672666,0.007 0.958028,0.31419 0.285364,0.30753 0.465264,0.86435 0.465264,0.86435 l 0.008,2.08167 c 0,0 -0.203041,0.5653 -0.456214,0.82874 -0.253174,0.26344 -1.198111,0.34906 -1.198111,0.34906 l -2.291099,2e-5 h -5.02678 c 0,0 -0.632346,-0.26381 -0.799478,-0.51057 -0.167132,-0.24676 -0.157088,-0.82476 -0.157088,-0.82476 z"
       id="rect849-3"
       inkscape:connector-curvature="0"
       sodipodi:nodetypes="ccczcczcczccczcc" />
    <path
       style="fill:#000000;fill-opacity:1;stroke-width:0.23209143"
       d="M 1.9363333e-4,285.38212 H 5.9835673 v 6.04086 c 0,0 -0.03513,0.74814 0.1477467,0.94259 0.182872,0.19445 0.9237907,0.19637 0.9237907,0.19637 h 1.4424841 c 0,0 0.6726657,0.007 0.9580274,0.31419 0.2853641,0.30753 0.4652641,0.86435 0.4652641,0.86435 l 0.008,2.08167 c 0,0 -0.203041,0.5653 -0.456214,0.82874 -0.2531728,0.26344 -1.1981105,0.34906 -1.1981105,0.34906 l -2.2910975,2e-5 H 0.95668103 c 0,0 -0.63234573,-0.26381 -0.7994774,-0.51057 -0.167132,-0.24676 -0.15708799667,-0.82476 -0.15708799667,-0.82476 z"
       id="rect849-3-3"
       inkscape:connector-curvature="0"
       sodipodi:nodetypes="ccczcczcczccczcc" />
    <path
       style="fill:#d29646;fill-opacity:1;stroke:#000000;stroke-width:0.2;stroke-opacity:1;stroke-miterlimit:4;stroke-dasharray:none"
       d="M 0.11539941,247.21824 14.54769,261.26535 c 0.578876,0.99567 0.382755,2.01349 -0.472722,2.85308 -1.044713,0.92699 -2.423467,1.03087 -3.572689,0.23473 L 0.13727202,254.26478 Z"
       id="rect938"
       inkscape:connector-curvature="0"
       sodipodi:nodetypes="cccccc" />
    <path
       style="fill:#d29646;fill-opacity:1;stroke:#000000;stroke-width:0.2;stroke-opacity:1;stroke-miterlimit:4;stroke-dasharray:none"
       d="m 22.115399,247.21824 14.432297,14.04711 c 0.578876,0.99567 0.382755,2.0135 -0.472722,2.85309 -1.044713,0.92698 -2.423467,1.03087 -3.572689,0.23472 L 22.137271,254.26479 Z"
       id="rect938-2"
       inkscape:connector-curvature="0"
       sodipodi:nodetypes="cccccc" />
    <path
       style="fill:#000000;fill-opacity:1;stroke:none;stroke-width:0.27627853;stroke-opacity:1"
       d="m 9.6637143,254.54338 26.5513347,-1.39446 -0.02577,-1.5188 0.907859,-0.0865 0.146162,1.55117 2.97463,-0.15622 0.04091,0.87473 3.240674,-0.13112 0.119001,1.12382 -3.302115,0.23836 0.03485,0.74512 -8.821234,3.4511 0.321187,6.8681 -3.819277,0.20061 -0.468085,-6.8604 -13.214517,0.82392 0.315124,6.73852 -4.406862,0.23145 z"
       id="rect1009"
       inkscape:connector-curvature="0"
       sodipodi:nodetypes="ccccccccccccccccccc" />
    <rect
       style="fill:#000000;fill-opacity:1;stroke:none;stroke-width:0.17638887;stroke-opacity:1"
       id="rect822"
       width="6.2674704"
       height="0.37417737"
       x="8.5125341"
       y="244.05388" />
    <path
       style="fill:#000000;fill-opacity:1;stroke:none;stroke-width:0.08424333;stroke-opacity:1"
       d="m 11.113454,241.23395 h 1.370538 l -1.376207,-2.89181 0.351771,0.003 1.356018,2.88945 v 0.48157 h -1.70212 z"
       id="rect824"
       inkscape:connector-curvature="0"
       sodipodi:nodetypes="cccccccc" />
    <rect
       style="fill:#000000;fill-opacity:1;stroke:none;stroke-width:0.21441314;stroke-opacity:1"
       id="rect822-5"
       width="4.1159511"
       height="0.84189904"
       x="79.998978"
       y="219.06911"
       transform="rotate(18.862772)" />
    <rect
       style="fill:#000000;fill-opacity:1;stroke:none;stroke-width:0.21441314;stroke-opacity:1"
       id="rect822-5-3"
       width="4.1159511"
       height="0.84189904"
       x="-71.643967"
       y="223.76764"
       transform="rotate(-21.013925)" />
    <rect
       style="fill:#000000;fill-opacity:1;stroke:none;stroke-width:0.13371012;stroke-opacity:1"
       id="rect822-57-5"
       width="1.3096211"
       height="1.0289878"
       x="14.780005"
       y="236.19615" />
    <rect
       style="fill:#000000;fill-opacity:1;stroke:none;stroke-width:0.13371012;stroke-opacity:1"
       id="rect822-57-5-3"
       width="1.3096211"
       height="1.0289878"
       x="6.0620546"
       y="236.19615" />
    <path
       style="fill:#003e00;fill-opacity:1;stroke:none;stroke-width:0.26458332;stroke-opacity:1"
       d="m 11.482566,225.05269 c -1e-6,0.83566 -2.1274274,-0.19977 -2.6306758,0.3925 -0.8437915,0.86099 -3.5685383,0.65844 -3.6439979,-0.0956 -0.053852,-0.91407 1.8313206,-0.39518 1.8313183,-1.39603 -1.5e-6,-0.66627 -3.6267292,-0.96127 -1.4585843,-1.58523 1.6618469,-0.47825 6.5191677,-1.30295 7.5038867,-0.7183 0.793983,0.47141 -3.921374,1.85951 -3.3052597,2.44942 0.6464067,0.61891 1.7033137,-0.009 1.7033127,0.95326 z"
       id="path920"
       inkscape:connector-curvature="0"
       sodipodi:nodetypes="sccsssss" />
    <path
       style="fill:#003e00;fill-opacity:1;stroke:none;stroke-width:0.26458332;stroke-opacity:1"
       d="m 20.065258,228.39689 c 0,0.38787 -3.435418,-0.75365 -3.858319,-0.47882 -0.527652,0.34289 1.746756,1.26225 0.864901,1.26225 -1.58864,0 -2.876487,-0.70675 -2.876488,-1.57856 0.0091,-0.92581 2.084871,-1.10336 3.792148,-0.85752 1.235014,0.28957 2.077758,1.16774 2.077758,1.65265 z"
       id="path923"
       inkscape:connector-curvature="0"
       sodipodi:nodetypes="cssccc" />
    <path
       style="fill:#003e00;fill-opacity:1;stroke:none;stroke-width:0.26458332;stroke-opacity:1"
       d="m 8.3722183,228.26827 c 0.8418762,0.80109 -1.0183535,2.03459 -3.1688143,2.03459 -2.1504608,0 -3.9171461,-0.74239 -3.9171689,-1.05237 -1.55e-5,-0.30998 1.743295,0.53788 3.8937828,0.53788 2.1504879,0 1.812437,-2.60182 3.1922004,-1.5201 z"
       id="path926"
       inkscape:connector-curvature="0"
       sodipodi:nodetypes="cscsc" />
    <path
       style="fill:#003e00;fill-opacity:1;stroke:none;stroke-width:0.26458332;stroke-opacity:1"
       d="m 20.246674,221.78349 c -1.622398,0.79615 -3.952597,2.10324 -4.095296,1.22642 -0.2455,-0.78513 2.276856,-0.81007 2.276857,-1.28974 -1e-6,-0.65108 -2.489412,-0.38642 -2.490279,-0.90388 -0.0011,-0.67682 2.630594,-0.68637 2.630594,-0.68637 l 0.433608,0.37351 0.418815,0.38423 0.45042,0.45507 z"
       id="path929"
       inkscape:connector-curvature="0"
       sodipodi:nodetypes="cccsccccc" />
    <path
       style="fill:#003e00;fill-opacity:1;stroke:none;stroke-width:0.26458332;stroke-opacity:1"
       d="m 2.6192414,224.93575 c -5.8e-6,0.43268 -1.2983106,0.7917 -2.49947378,0.7917 l 0.0690263,-0.44531 0.0884213,-0.40816 0.0840835,-0.33186 0.14091454,-0.38981 c 0.44879754,0 0.73780934,0.37637 1.08417954,0.46028 0.5806645,0.14067 1.0328547,-0.32203 1.0328486,0.32316 z"
       id="path932"
       inkscape:connector-curvature="0"
       sodipodi:nodetypes="ccccccsc" />
  </g>
</svg>
